<svg width="21" height="18" viewBox="0 0 21 18" fill="none" xmlns="http://www.w3.org/2000/svg">
<path d="M10.5888 11.7861C10.0967 11.3242 9.77361 10.7099 9.6712 10.0419C7.1011 11.1495 4.17441 13.2948 0.973744 17.2236L0.560623 17.8471V17.9649L0.638896 17.9998H0.678033H0.704125C1.49559 17.6073 4.97022 15.8195 8.02738 15.3835L8.297 14.9998L10.1496 12.3835L10.5888 11.7861ZM9.85385 8.37622L10.3409 7.70907C11.2846 6.40093 13.0806 5.55936 14.2243 5.17564L13.2546 0.0782518C13.2505 0.0596674 13.2415 0.0425386 13.2285 0.0287095C13.2154 0.0148804 13.1989 0.00487382 13.1806 -0.00023674C13.1613 -0.00481806 13.1411 -0.00353256 13.1225 0.00345598C13.1039 0.0104445 13.0878 0.0228184 13.0763 0.0390059L8.41877 6.7454H0.0953056C0.074781 6.74622 0.0550028 6.75336 0.0386639 6.76584C0.022325 6.77832 0.0102214 6.79555 0.00398611 6.81517C-0.00187015 6.83581 -0.00126301 6.85776 0.00573792 6.87804C0.0127388 6.89832 0.0257935 6.91595 0.0431231 6.92854L4.46577 10.3646C6.14443 9.42142 7.96382 8.75589 9.85385 8.39366V8.37622ZM10.9976 8.20616C11.9591 8.07799 12.9281 8.0139 13.8982 8.0143C14.3069 8.0143 14.7201 8.0143 15.1289 8.04918C16.5765 8.10572 17.9973 8.4589 19.3036 9.08697L20.9996 6.51866C19.8994 5.81226 17.8077 5.64656 17.8077 5.64656L18.3382 4.12913H15.6246L15.1897 5.75558C14.4461 5.87767 12.0413 6.7672 11.0106 8.18436L10.9976 8.20616ZM17.8946 9.46633C17.2707 9.24926 16.6246 9.103 15.9682 9.03029C14.1285 8.8387 12.2695 9.06984 10.5322 9.70616C10.5844 11.3152 12.4587 12.1306 13.8634 12.257C15.4724 12.3966 16.4509 12.5012 16.2943 13.0681C16.203 13.4082 15.9899 13.8094 14.3417 13.8094C13.1413 13.7357 11.9674 13.4229 10.8888 12.8893L9.04064 15.5056C10.5366 16.3777 12.8501 16.539 12.8501 16.539L12.4457 17.9867H15.1549L15.4637 16.5565C19.1558 16.0768 20.1473 14.0535 20.4386 13.1815C20.643 12.5623 20.9996 10.7091 17.8903 9.48378" fill="black"/>
</svg>
