<svg width="9" height="8" viewBox="0 0 9 8" fill="none" xmlns="http://www.w3.org/2000/svg">
<path d="M8.08594 5.54102V0.926758C8.08594 0.462891 7.77344 0.145508 7.30469 0.145508H2.68555C2.25098 0.145508 1.91895 0.477539 1.91895 0.87793C1.91895 1.27344 2.25586 1.58105 2.68555 1.58105H4.42871L5.71777 1.53223L4.92676 2.23535L1.00098 6.16602C0.839844 6.33203 0.74707 6.52734 0.74707 6.72754C0.74707 7.11328 1.1084 7.47949 1.50391 7.47949C1.7041 7.47949 1.89453 7.3916 2.06055 7.22559L5.99121 3.30469L6.69922 2.50879L6.64551 3.76367V5.5459C6.64551 5.97559 6.94824 6.30762 7.35352 6.30762C7.75391 6.30762 8.08594 5.9707 8.08594 5.54102Z" fill="white"/>
</svg>
