<svg width="60" height="60" viewBox="0 0 60 60" fill="none" xmlns="http://www.w3.org/2000/svg">
<rect width="60" height="60" rx="30" fill="white"/>
<path d="M27.7363 33.0752C27.7363 33.5202 27.8683 33.9552 28.1155 34.3252C28.3628 34.6952 28.7142 34.9836 29.1253 35.1539C29.5364 35.3242 29.9888 35.3688 30.4253 35.282C30.8617 35.1951 31.2627 34.9809 31.5773 34.6662C31.892 34.3515 32.1063 33.9506 32.1931 33.5142C32.2799 33.0777 32.2354 32.6253 32.0651 32.2142C31.8948 31.803 31.6064 31.4516 31.2364 31.2044C30.8664 30.9572 30.4313 30.8252 29.9863 30.8252C29.5413 30.8252 29.1063 30.6932 28.7363 30.446C28.3663 30.1988 28.0779 29.8474 27.9076 29.4362C27.7373 29.0251 27.6927 28.5727 27.7796 28.1362C27.8664 27.6998 28.0807 27.2989 28.3953 26.9842C28.71 26.6695 29.1109 26.4552 29.5474 26.3684C29.9838 26.2816 30.4362 26.3262 30.8474 26.4965C31.2585 26.6668 31.6099 26.9552 31.8571 27.3252C32.1044 27.6952 32.2363 28.1302 32.2363 28.5752" stroke="black" stroke-width="1.5" stroke-linecap="round" stroke-linejoin="round"/>
<path d="M29.9863 24.8252V26.3252" stroke="black" stroke-width="1.5" stroke-linecap="round" stroke-linejoin="round"/>
<path d="M29.9863 35.3252V36.8252" stroke="black" stroke-width="1.5" stroke-linecap="round" stroke-linejoin="round"/>
<path d="M40.4864 28.9502C40.4922 32.0065 39.4547 34.9733 37.5454 37.3599C35.6361 39.7466 32.9694 41.41 29.9864 42.0752C27.0033 41.41 24.3366 39.7466 22.4273 37.3599C20.518 34.9733 19.4805 32.0065 19.4864 28.9502V23.7002C19.4864 23.004 19.7629 22.3363 20.2552 21.844C20.7475 21.3518 21.4152 21.0752 22.1114 21.0752H37.8614C38.5575 21.0752 39.2252 21.3518 39.7175 21.844C40.2098 22.3363 40.4864 23.004 40.4864 23.7002V28.9502Z" stroke="black" stroke-width="1.5" stroke-linecap="round" stroke-linejoin="round"/>
</svg>
