<svg width="66" height="66" viewBox="0 0 66 66" fill="none" xmlns="http://www.w3.org/2000/svg">
<path d="M33.1445 65.2969C50.8633 65.2969 65.3477 50.8125 65.3477 33.0938C65.3477 15.375 50.8633 0.890625 33.1445 0.890625C15.4258 0.890625 0.941406 15.375 0.941406 33.0938C0.941406 50.8125 15.4258 65.2969 33.1445 65.2969ZM33.1445 63.3984C16.4453 63.3984 2.83984 49.793 2.83984 33.0938C2.83984 16.3945 16.4453 2.78906 33.1445 2.78906C49.8438 2.78906 63.4492 16.3945 63.4492 33.0938C63.4492 49.793 49.8438 63.3984 33.1445 63.3984ZM33.1094 51.2344C33.6016 51.2344 34.0234 50.8828 34.0234 50.3906V47.6133C39.4727 47.2969 43.1289 44.0977 43.1289 39.9141C43.1289 36.082 40.5625 33.7617 35.1133 32.4961L34.0234 32.2852V21C37.6445 21.2461 40.3164 23.3203 40.7734 26.1328C40.8789 26.7305 41.125 27.0469 41.6875 27.0469C42.2148 27.0469 42.6016 26.6953 42.6016 26.0977C42.6016 25.8516 42.5312 25.5703 42.4961 25.3242C41.8281 22.0195 38.418 19.4531 34.0234 19.1719V16.8516C34.0234 16.3594 33.6016 16.0078 33.1094 16.0078C32.582 16.0078 32.2656 16.3242 32.2656 16.8516V19.1719C27.5547 19.4883 23.8281 22.4766 23.8281 26.4844C23.8281 30.0352 26.3945 32.3906 31.7031 33.6211L32.2656 33.7266V45.8203C28.2227 45.5039 25.2695 43.1836 24.918 39.8789C24.8477 39.2812 24.5664 38.9297 24.0039 38.9297C23.5117 38.9297 23.125 39.2812 23.125 39.9141C23.125 40.1953 23.1953 40.4414 23.2305 40.6875C23.9688 44.5547 27.4492 47.2969 32.2656 47.5781V50.3906C32.2656 50.918 32.6172 51.2344 33.1094 51.2344ZM32.2656 31.8633L32.0898 31.8281C27.8711 30.8086 25.6562 29.2617 25.6562 26.4844C25.6562 23.4609 28.5742 21.2461 32.2656 21V31.8633ZM34.0234 34.1484L34.7266 34.3242C39.2969 35.3438 41.3359 37.0312 41.3359 39.9492C41.3359 43.1836 38.3828 45.5742 34.0234 45.8203V34.1484Z" fill="black"/>
</svg>
