<svg width="60" height="60" viewBox="0 0 60 60" fill="none" xmlns="http://www.w3.org/2000/svg">
<rect width="60" height="60" rx="30" fill="white"/>
<path d="M18.7871 36.7715C22.5371 36.7715 21.0371 37.5215 30.7871 37.5215C33.7871 37.5215 36.7871 36.7715 37.5371 33.7715" stroke="black" stroke-width="1.5" stroke-linecap="round" stroke-linejoin="round"/>
<path d="M18.7871 29.1643H21.1691C21.3121 29.1644 21.4533 29.1326 21.5825 29.0714C21.7117 29.0102 21.8256 28.921 21.9161 28.8103L25.9661 24.8213L29.7951 25.5873C30.3411 25.6963 30.7001 26.1323 30.4621 27.0873C30.4158 27.2735 30.3149 27.4416 30.1723 27.5701C30.0298 27.6985 29.8521 27.7815 29.6621 27.8083L27.7871 28.0813C27.6743 28.0926 27.5649 28.1265 27.4655 28.1811C27.3661 28.2358 27.2788 28.3099 27.2087 28.3991C27.1387 28.4882 27.0874 28.5907 27.0579 28.7002C27.0284 28.8097 27.0213 28.924 27.0371 29.0363V31.5933C26.9744 31.8847 26.8202 32.1485 26.5971 32.3463L24.5191 33.9853" stroke="black" stroke-width="1.5" stroke-linecap="round" stroke-linejoin="round"/>
<path d="M30.0371 33.7715H39.7871C40.1849 33.7715 40.5665 33.6134 40.8478 33.3321C41.1291 33.0508 41.2871 32.6693 41.2871 32.2715V24.0215C41.2871 23.6237 41.1291 23.2421 40.8478 22.9608C40.5665 22.6795 40.1849 22.5215 39.7871 22.5215H28.5371C28.1393 22.5215 27.7578 22.6795 27.4764 22.9608C27.1951 23.2421 27.0371 23.6237 27.0371 24.0215V25.0395" stroke="black" stroke-width="1.5" stroke-linecap="round" stroke-linejoin="round"/>
<path d="M30.5293 26.2715H41.2873" stroke="black" stroke-width="1.5" stroke-linecap="round" stroke-linejoin="round"/>
<path d="M38.2871 29.2715H36.7871" stroke="black" stroke-width="1.5" stroke-linecap="round" stroke-linejoin="round"/>
</svg>
