<svg width="60" height="60" viewBox="0 0 60 60" fill="none" xmlns="http://www.w3.org/2000/svg">
<rect width="60" height="60" rx="30" fill="white"/>
<path d="M39.8739 19.2373H26.3359C25.7837 19.2373 25.3359 19.685 25.3359 20.2373V28.4783C25.3359 29.0306 25.7837 29.4783 26.3359 29.4783H39.8739C40.4262 29.4783 40.8739 29.0306 40.8739 28.4783V20.2373C40.8739 19.685 40.4262 19.2373 39.8739 19.2373Z" stroke="black" stroke-width="1.5" stroke-linecap="round" stroke-linejoin="round"/>
<path d="M29.6777 26.6807H37.1677" stroke="black" stroke-width="1.5" stroke-linecap="round" stroke-linejoin="round"/>
<path d="M33.1055 23.75C33.5197 23.75 33.8555 23.4142 33.8555 23C33.8555 22.5858 33.5197 22.25 33.1055 22.25C32.6913 22.25 32.3555 22.5858 32.3555 23C32.3555 23.4142 32.6913 23.75 33.1055 23.75Z" stroke="black" stroke-width="1.5" stroke-miterlimit="10"/>
<path d="M33.9106 32.2V36.074C33.9103 37.3378 33.4081 38.5498 32.5143 39.4434C31.6205 40.337 30.4084 40.839 29.1446 40.839H25.9646C25.1611 40.8393 24.3705 40.6368 23.666 40.2503C22.9616 39.8638 22.366 39.3058 21.9346 38.628C21.0166 37.176 19.2596 31.796 18.4646 29.282C18.3523 28.9247 18.3796 28.5381 18.5411 28.2002C18.7025 27.8623 18.9861 27.5981 19.3346 27.461V27.461C19.6522 27.3339 20.0039 27.3204 20.3302 27.4228C20.6566 27.5252 20.9376 27.7372 21.1256 28.023C21.6866 28.873 21.8746 29.401 22.3996 30.31L22.4756 23.681C22.4756 23.3017 22.6262 22.938 22.8944 22.6698C23.1626 22.4016 23.5263 22.251 23.9056 22.251C24.2848 22.251 24.6486 22.4016 24.9167 22.6698C25.1849 22.938 25.3356 23.3017 25.3356 23.681V28.355" stroke="black" stroke-width="1.5" stroke-linecap="round" stroke-linejoin="round"/>
<path d="M22.0957 29.7725L23.2957 31.7845C25.6827 32.3925 25.6337 34.0975 25.6337 35.5975" stroke="black" stroke-width="1.5" stroke-linecap="round" stroke-linejoin="round"/>
</svg>
