<svg width="60" height="60" viewBox="0 0 60 60" fill="none" xmlns="http://www.w3.org/2000/svg">
<rect width="60" height="60" rx="30" fill="white"/>
<path d="M18.7559 36.0879H25.5059" stroke="black" stroke-width="1.5" stroke-linecap="round" stroke-linejoin="round"/>
<path d="M25.5059 24.8379H18.7559" stroke="black" stroke-width="1.5" stroke-linecap="round" stroke-linejoin="round"/>
<path d="M41.2559 24.8379H34.5059" stroke="black" stroke-width="1.5" stroke-linecap="round" stroke-linejoin="round"/>
<path d="M34.5059 36.0879H41.2559" stroke="black" stroke-width="1.5" stroke-linecap="round" stroke-linejoin="round"/>
<path d="M18.7559 32.3379H25.5059" stroke="black" stroke-width="1.5" stroke-linecap="round" stroke-linejoin="round"/>
<path d="M18.7559 28.5879H25.5059" stroke="black" stroke-width="1.5" stroke-linecap="round" stroke-linejoin="round"/>
<path d="M34.5059 32.3379H41.2559" stroke="black" stroke-width="1.5" stroke-linecap="round" stroke-linejoin="round"/>
<path d="M34.5059 28.5879H41.2559" stroke="black" stroke-width="1.5" stroke-linecap="round" stroke-linejoin="round"/>
<path d="M25.5059 23.3379H34.5059V37.5879H25.5059V23.3379Z" stroke="black" stroke-width="1.5" stroke-linecap="round" stroke-linejoin="round"/>
<path d="M28.1474 32.682C28.3638 32.9666 28.6457 33.1948 28.9691 33.3472C29.2926 33.4995 29.6481 33.5715 30.0054 33.557C31.1444 33.557 32.0684 32.864 32.0684 32.01C32.0684 31.156 31.1444 30.464 30.0054 30.464C28.8664 30.464 27.9434 29.771 27.9434 28.916C27.9434 28.061 28.8664 27.369 30.0054 27.369C30.3626 27.3545 30.7181 27.4265 31.0416 27.5789C31.365 27.7312 31.647 27.9594 31.8634 28.244" stroke="black" stroke-width="1.5" stroke-linecap="round" stroke-linejoin="round"/>
<path d="M30.0059 33.5566V34.5876" stroke="black" stroke-width="1.5" stroke-linecap="round" stroke-linejoin="round"/>
<path d="M30.0059 26.3379V27.3689" stroke="black" stroke-width="1.5" stroke-linecap="round" stroke-linejoin="round"/>
</svg>
