<svg width="60" height="60" viewBox="0 0 60 60" fill="none" xmlns="http://www.w3.org/2000/svg">
<rect width="60" height="60" rx="30" fill="white"/>
<path d="M38.623 28.0656C38.6229 26.3627 38.1396 24.6948 37.2294 23.2556C36.3191 21.8164 35.0192 20.665 33.4807 19.9351C31.9421 19.2052 30.2281 18.9267 28.5376 19.1321C26.8471 19.3375 25.2496 20.0182 23.9306 21.0953C22.6116 22.1724 21.6252 23.6016 21.0861 25.2168C20.5469 26.8321 20.4771 28.5672 20.8847 30.2206C21.2923 31.874 22.1606 33.3779 23.3888 34.5574C24.6169 35.737 26.1546 36.544 27.823 36.8846L29.623 41.5656L31.423 36.8846C33.4557 36.4697 35.2827 35.3652 36.5947 33.7582C37.9067 32.1511 38.6232 30.1402 38.623 28.0656V28.0656Z" stroke="black" stroke-width="1.5" stroke-linecap="round" stroke-linejoin="round"/>
<path d="M31.1221 25.0654H28.7141C28.4025 25.0656 28.1008 25.1743 27.8605 25.3727C27.6203 25.5711 27.4566 25.8469 27.3974 26.1528C27.3383 26.4587 27.3875 26.7756 27.5365 27.0493C27.6855 27.3229 27.9251 27.5361 28.2141 27.6524L31.0281 28.4784C31.3172 28.5947 31.5567 28.808 31.7057 29.0816C31.8548 29.3552 31.9039 29.6722 31.8448 29.9781C31.7857 30.284 31.6219 30.5598 31.3817 30.7582C31.1415 30.9566 30.8397 31.0652 30.5281 31.0654H28.1221" stroke="black" stroke-width="1.5" stroke-linecap="round" stroke-linejoin="round"/>
<path d="M29.623 25.0654V24.3154" stroke="black" stroke-width="1.5" stroke-linecap="round" stroke-linejoin="round"/>
<path d="M29.623 31.8154V31.0654" stroke="black" stroke-width="1.5" stroke-linecap="round" stroke-linejoin="round"/>
</svg>
