<svg width="60" height="60" viewBox="0 0 60 60" fill="none" xmlns="http://www.w3.org/2000/svg">
<rect width="60" height="60" rx="30" fill="white"/>
<path d="M29.7679 20.8027C28.2792 20.814 26.8072 21.1184 25.4361 21.6986C24.065 22.2787 22.8216 23.1233 21.7769 24.184C20.7322 25.2448 19.9067 26.5009 19.3475 27.8807C18.7884 29.2605 18.5064 30.737 18.5179 32.2257V34.3027C18.5179 34.7006 18.6759 35.0821 18.9573 35.3634C19.2386 35.6447 19.6201 35.8027 20.0179 35.8027H39.5179C39.9157 35.8027 40.2973 35.6447 40.5786 35.3634C40.8599 35.0821 41.0179 34.7006 41.0179 34.3027V32.2227C41.0403 29.2166 39.8676 26.3246 37.7579 24.183C35.6481 22.0414 32.7741 20.8255 29.7679 20.8027Z" stroke="black" stroke-width="1.5" stroke-linecap="round" stroke-linejoin="round"/>
<path d="M26.7676 35.8027V35.0527C26.7676 34.2571 27.0836 33.494 27.6463 32.9314C28.2089 32.3688 28.9719 32.0527 29.7676 32.0527C30.5632 32.0527 31.3263 32.3688 31.8889 32.9314C32.4515 33.494 32.7676 34.2571 32.7676 35.0527V35.8027" stroke="black" stroke-width="1.5" stroke-linecap="round" stroke-linejoin="round"/>
<path d="M32.0176 25.3057L29.7676 32.0557" stroke="black" stroke-width="1.5" stroke-linecap="round" stroke-linejoin="round"/>
<path d="M22.6426 31.3027C22.5684 31.3027 22.4959 31.3247 22.4342 31.3659C22.3726 31.4071 22.3245 31.4657 22.2961 31.5342C22.2677 31.6028 22.2603 31.6782 22.2748 31.7509C22.2893 31.8236 22.325 31.8905 22.3774 31.9429C22.4299 31.9953 22.4967 32.0311 22.5694 32.0455C22.6422 32.06 22.7176 32.0526 22.7861 32.0242C22.8546 31.9958 22.9132 31.9477 22.9544 31.8861C22.9956 31.8244 23.0176 31.7519 23.0176 31.6777C23.0176 31.5783 22.9781 31.4829 22.9077 31.4126C22.8374 31.3422 22.742 31.3027 22.6426 31.3027Z" fill="black" stroke="black" stroke-width="1.5" stroke-linecap="round" stroke-linejoin="round"/>
<path d="M24.1426 27.5557C24.0684 27.5557 23.9959 27.5777 23.9342 27.6189C23.8726 27.6601 23.8245 27.7186 23.7961 27.7872C23.7677 27.8557 23.7603 27.9311 23.7748 28.0038C23.7893 28.0766 23.825 28.1434 23.8774 28.1958C23.9299 28.2483 23.9967 28.284 24.0694 28.2985C24.1422 28.3129 24.2176 28.3055 24.2861 28.2771C24.3546 28.2487 24.4132 28.2007 24.4544 28.139C24.4956 28.0773 24.5176 28.0048 24.5176 27.9307C24.5176 27.8312 24.4781 27.7358 24.4077 27.6655C24.3374 27.5952 24.242 27.5557 24.1426 27.5557Z" fill="black" stroke="black" stroke-width="1.5" stroke-linecap="round" stroke-linejoin="round"/>
<path d="M36.8926 31.3027C36.8184 31.3027 36.7459 31.3247 36.6842 31.3659C36.6226 31.4071 36.5745 31.4657 36.5461 31.5342C36.5177 31.6028 36.5103 31.6782 36.5248 31.7509C36.5393 31.8236 36.575 31.8905 36.6274 31.9429C36.6799 31.9953 36.7467 32.0311 36.8194 32.0455C36.8922 32.06 36.9676 32.0526 37.0361 32.0242C37.1046 31.9958 37.1632 31.9477 37.2044 31.8861C37.2456 31.8244 37.2676 31.7519 37.2676 31.6777C37.2676 31.5783 37.2281 31.4829 37.1577 31.4126C37.0874 31.3422 36.992 31.3027 36.8926 31.3027Z" fill="black" stroke="black" stroke-width="1.5" stroke-linecap="round" stroke-linejoin="round"/>
<path d="M35.3926 27.5557C35.3184 27.5557 35.2459 27.5777 35.1842 27.6189C35.1226 27.6601 35.0745 27.7186 35.0461 27.7872C35.0177 27.8557 35.0103 27.9311 35.0248 28.0038C35.0393 28.0766 35.075 28.1434 35.1274 28.1958C35.1799 28.2483 35.2467 28.284 35.3194 28.2985C35.3922 28.3129 35.4676 28.3055 35.5361 28.2771C35.6046 28.2487 35.6632 28.2007 35.7044 28.139C35.7456 28.0773 35.7676 28.0048 35.7676 27.9307C35.7676 27.8312 35.7281 27.7358 35.6577 27.6655C35.5874 27.5952 35.492 27.5557 35.3926 27.5557Z" fill="black" stroke="black" stroke-width="1.5" stroke-linecap="round" stroke-linejoin="round"/>
<path d="M27.1426 24.5557C27.0684 24.5557 26.9959 24.5777 26.9342 24.6189C26.8726 24.6601 26.8245 24.7186 26.7961 24.7872C26.7677 24.8557 26.7603 24.9311 26.7748 25.0038C26.7893 25.0766 26.825 25.1434 26.8774 25.1958C26.9299 25.2483 26.9967 25.284 27.0694 25.2985C27.1422 25.3129 27.2176 25.3055 27.2861 25.2771C27.3546 25.2487 27.4132 25.2007 27.4544 25.139C27.4956 25.0773 27.5176 25.0048 27.5176 24.9307C27.5176 24.8312 27.4781 24.7358 27.4077 24.6655C27.3374 24.5952 27.242 24.5557 27.1426 24.5557Z" fill="black" stroke="black" stroke-width="1.5" stroke-linecap="round" stroke-linejoin="round"/>
</svg>
