<svg width="60" height="60" viewBox="0 0 60 60" fill="none" xmlns="http://www.w3.org/2000/svg">
<rect width="60" height="60" rx="30" fill="white"/>
<path d="M32.3047 25.5566C32.3047 28.8066 27.1727 36.0836 25.8587 37.8926C25.8239 37.9406 25.7783 37.9796 25.7255 38.0065C25.6728 38.0334 25.6144 38.0474 25.5552 38.0474C25.496 38.0474 25.4376 38.0334 25.3849 38.0065C25.3321 37.9796 25.2865 37.9406 25.2517 37.8926C23.9377 36.0836 18.8047 28.8066 18.8047 25.5566C18.8047 23.7664 19.5158 22.0495 20.7817 20.7837C22.0476 19.5178 23.7645 18.8066 25.5547 18.8066C27.3449 18.8066 29.0618 19.5178 30.3277 20.7837C31.5935 22.0495 32.3047 23.7664 32.3047 25.5566V25.5566Z" stroke="black" stroke-width="1.5" stroke-linecap="round" stroke-linejoin="round"/>
<path d="M27.3749 23.3066H24.7539C24.4423 23.3069 24.1406 23.4155 23.9003 23.6139C23.6601 23.8123 23.4964 24.0881 23.4372 24.394C23.3781 24.6999 23.4273 25.0168 23.5763 25.2905C23.7253 25.5641 23.9649 25.7773 24.2539 25.8936L26.9089 26.7186C27.1986 26.8345 27.4389 27.0477 27.5884 27.3216C27.7379 27.5955 27.7873 27.9129 27.7281 28.2192C27.6689 28.5256 27.5048 28.8017 27.2641 29.0002C27.0233 29.1986 26.7209 29.307 26.4089 29.3066H23.2539" stroke="black" stroke-width="1.5" stroke-linecap="round" stroke-linejoin="round"/>
<path d="M25.5 23.3066V21.8066" stroke="black" stroke-width="1.5" stroke-linecap="round" stroke-linejoin="round"/>
<path d="M25.5 30.8066V29.3066" stroke="black" stroke-width="1.5" stroke-linecap="round" stroke-linejoin="round"/>
<path d="M27.8047 41.3066H29.3047" stroke="black" stroke-width="1.5" stroke-linecap="round" stroke-linejoin="round"/>
<path d="M32.3047 41.3066H33.4547C33.6008 41.3052 33.7453 41.2749 33.8797 41.2176C34.0142 41.1602 34.136 41.0769 34.2381 40.9724C34.3403 40.8679 34.4209 40.7443 34.4752 40.6086C34.5295 40.4729 34.5565 40.3278 34.5547 40.1816V39.0566" stroke="black" stroke-width="1.5" stroke-linecap="round" stroke-linejoin="round"/>
<path d="M34.5547 36.0566V34.5566" stroke="black" stroke-width="1.5" stroke-linecap="round" stroke-linejoin="round"/>
<path d="M34.5548 31.5566V30.4316C34.5529 30.2855 34.5799 30.1404 34.6343 30.0047C34.6886 29.869 34.7691 29.7454 34.8713 29.6409C34.9735 29.5364 35.0953 29.453 35.2297 29.3957C35.3642 29.3383 35.5086 29.3081 35.6548 29.3066H36.8048" stroke="black" stroke-width="1.5" stroke-linecap="round" stroke-linejoin="round"/>
<path d="M39.8047 29.3066H41.3047" stroke="black" stroke-width="1.5" stroke-linecap="round" stroke-linejoin="round"/>
</svg>
