<svg width="60" height="60" viewBox="0 0 60 60" fill="none" xmlns="http://www.w3.org/2000/svg">
<rect width="60" height="60" rx="30" fill="white"/>
<path d="M36.25 21.8154V25.7044" stroke="black" stroke-width="1.5" stroke-linecap="round" stroke-linejoin="round"/>
<path d="M38.1946 23.7598H34.3066" stroke="black" stroke-width="1.5" stroke-linecap="round" stroke-linejoin="round"/>
<path d="M36.25 28.7598C39.0114 28.7598 41.25 26.5212 41.25 23.7598C41.25 20.9983 39.0114 18.7598 36.25 18.7598C33.4886 18.7598 31.25 20.9983 31.25 23.7598C31.25 26.5212 33.4886 28.7598 36.25 28.7598Z" stroke="black" stroke-width="1.5" stroke-linecap="round" stroke-linejoin="round"/>
<path d="M20.578 37.2209L27.032 40.9859C27.3115 41.1485 27.6288 41.2346 27.9521 41.2356C28.2754 41.2367 28.5933 41.1526 28.8738 40.9919C29.1543 40.8311 29.3875 40.5994 29.5501 40.32C29.7127 40.0405 29.7989 39.7232 29.8 39.3999V30.8999C29.7997 30.2566 29.631 29.6246 29.3106 29.0667C28.9903 28.5088 28.5295 28.0445 27.974 27.7199L21.52 23.9549C21.2401 23.7917 20.9221 23.7052 20.5981 23.7041C20.2741 23.703 19.9555 23.7874 19.6746 23.9488C19.3936 24.1102 19.1602 24.3428 18.9979 24.6232C18.8355 24.9037 18.75 25.2219 18.75 25.5459V34.0389C18.7501 34.6828 18.9189 35.3154 19.2396 35.8738C19.5603 36.4321 20.0218 36.8966 20.578 37.2209V37.2209Z" stroke="black" stroke-width="1.5" stroke-linecap="round" stroke-linejoin="round"/>
<path d="M34.75 31.2598V33.7598C34.75 34.2902 34.5393 34.7989 34.1642 35.174C33.7891 35.5491 33.2804 35.7598 32.75 35.7598H30.25" stroke="black" stroke-width="1.5" stroke-linecap="round" stroke-linejoin="round"/>
<path d="M20.4727 23.7021H28.6307" stroke="black" stroke-width="1.5" stroke-linecap="round" stroke-linejoin="round"/>
<path d="M26.2168 34.7168C26.631 34.7168 26.9668 34.381 26.9668 33.9668C26.9668 33.5526 26.631 33.2168 26.2168 33.2168C25.8026 33.2168 25.4668 33.5526 25.4668 33.9668C25.4668 34.381 25.8026 34.7168 26.2168 34.7168Z" stroke="black" stroke-width="1.5" stroke-linecap="round" stroke-linejoin="round"/>
</svg>
